<?xml version="1.0" encoding="utf-8"?>
<!-- Generator: Adobe Illustrator 18.0.0, SVG Export Plug-In . SVG Version: 6.00 Build 0)  -->
<!DOCTYPE svg PUBLIC "-//W3C//DTD SVG 1.1//EN" "http://www.w3.org/Graphics/SVG/1.1/DTD/svg11.dtd">
<svg version="1.1" id="Layer_1" xmlns="http://www.w3.org/2000/svg" xmlns:xlink="http://www.w3.org/1999/xlink" x="0px" y="0px"
	 viewBox="701.2 621.4 2450.8 1037.1" enable-background="new 701.2 621.4 2450.8 1037.1" xml:space="preserve">
<rect x="-107.7" y="-222.5" fill="none" width="3407" height="2740"/>
<g id="XMLID_73_">
	<g>
		<polygon fill="#A94B25" points="1281.1,1188.5 1284.3,1149.9 3204.8,832 3248.7,831.1 3271.6,1435.1 		"/>
	</g>
</g>
<rect x="-107.7" y="-222.5" fill="none" width="3407" height="2740"/>
<path id="XMLID_33_" fill="#2D2D2D" d="M3254.7,831.1l22.9,604l-1990.5-246.6l3-38.6L3210.8,832L3254.7,831.1 M3275,815.7l-20.8,0.4
	l-43.9,0.9h-2l-2,0.4l-1920.7,317.9l-15.2,2.6l-0.8,11.3l-3,38.6l-1,13.4l18.3,2.3L3274.3,1450l25,3l-0.7-18.4l-22.9-604L3275,815.7
	L3275,815.7z"/>
<rect x="-107.7" y="-222.5" fill="none" width="3407" height="2740"/>
<g id="XMLID_65_">
	<g>
		<polygon fill="#A94B25" points="1254.8,1120.1 1219.4,1091.3 2268.2,-120.9 2298.4,-144 2902.1,271.4 		"/>
	</g>
</g>
<rect x="-107.7" y="-222.5" fill="none" width="3407" height="2740"/>
<path id="XMLID_32_" fill="#2D2D2D" d="M2298.4-144l603.7,415.4l-1647.5,848.7l-35.2-28.9L2268.2-120.9L2298.4-144 M2297.7-165.3
	l-14.2,11l-30.2,23.1l-1.3,1.1l-1,1.2L1201.9,1083.2l-8.4,9.6l10.4,8.4l35.3,28.9l12.4,10.1l15.1-7.8l1647.5-848.7l20.6-10.6
	l-18.3-12.7L2312.6-155L2297.7-165.3L2297.7-165.3z"/>
<rect x="-107.7" y="-222.5" fill="none" width="3407" height="2740"/>
<g id="XMLID_59_">
	<g>
		<polygon fill="#A94B25" points="1113,1158.1 1097.9,1171.5 465.8,773.9 453.7,762.4 670.4,533.5 		"/>
	</g>
</g>
<rect x="-107.7" y="-222.5" fill="none" width="3407" height="2740"/>
<path id="XMLID_31_" fill="#2D2D2D" d="M670.4,533.5l442.6,624.5l-15,13.4L465.8,773.9l-12.1-11.4L670.4,533.5 M671.2,521.2
	l-6.6,6.9L448,757l-5.4,5.7l5.7,5.4l12.1,11.4l0.6,0.5l0.6,0.4l632.1,397.6l5,3.2l4.4-3.9l15-13.4l5.3-4.7l-4.1-5.7L676.8,528.9
	L671.2,521.2L671.2,521.2z"/>
<rect x="-107.7" y="-222.5" fill="none" width="3407" height="2740"/>
<g id="XMLID_53_">
	<g>
		<polygon fill="#A94B25" points="1096.1,1192.6 1094.9,1212.8 366.8,1378.5 350.1,1379 341.5,1064 		"/>
	</g>
</g>
<rect x="-107.7" y="-222.5" fill="none" width="3407" height="2740"/>
<path id="XMLID_30_" fill="#2D2D2D" d="M341.5,1064l754.6,128.6l-1.1,20.1l-728.1,165.8l-16.6,0.4L341.5,1064 M333.3,1054.7l0.3,9.6
	l8.7,315l0.2,7.9l7.9-0.2l16.6-0.4h0.8l0.8-0.2l728.1-165.9l5.8-1.3l0.3-5.9l1.1-20.1l0.4-7l-6.9-1.2l-754.6-128.6L333.3,1054.7
	L333.3,1054.7z"/>
<rect x="-107.7" y="-222.5" fill="none" width="3407" height="2740"/>
<g id="XMLID_95_">
	<g>
		<polygon fill="#A94B25" points="1107.3,1229.1 1120.8,1244.2 723.1,1876.3 711.7,1888.3 482.8,1671.7 		"/>
	</g>
</g>
<rect x="-107.7" y="-222.5" fill="none" width="3407" height="2740"/>
<path id="XMLID_36_" fill="#2D2D2D" d="M1107.3,1229.1l13.4,15l-397.6,632.1l-11.4,12.1l-228.9-216.6L1107.3,1229.1 M1108.5,1218.6
	l-5.7,4.1l-624.5,442.6l-7.8,5.5l6.9,6.6L706.2,1894l5.7,5.4l5.4-5.7l11.4-12.1l0.5-0.6l0.4-0.6l397.6-632.1l3.2-5l-3.9-4.4
	l-13.4-15L1108.5,1218.6L1108.5,1218.6z"/>
<rect x="-107.7" y="-222.5" fill="none" width="3407" height="2740"/>
<g id="XMLID_99_">
	<g>
		<polygon fill="#A94B25" points="1140.9,1247.4 1161.1,1248.6 1326.8,1976.7 1327.3,1993.4 1012.3,2002 		"/>
	</g>
</g>
<rect x="-107.7" y="-222.5" fill="none" width="3407" height="2740"/>
<path id="XMLID_37_" fill="#2D2D2D" d="M1140.9,1247.4l20.1,1.1l165.8,728.1l0.4,16.6l-315,8.7L1140.9,1247.4 M1134.4,1239.2
	l-1.2,6.9l-128.6,754.5l-1.6,9.5l9.6-0.3l315-8.7l7.9-0.2l-0.2-7.9l-0.4-16.6v-0.8l-0.2-0.8l-165.9-728.1l-1.3-5.8l-5.9-0.3
	l-20.1-1.1L1134.4,1239.2L1134.4,1239.2z"/>
<rect x="-107.7" y="-222.5" fill="none" width="3407" height="2740"/>
<g id="XMLID_92_">
	<g>
		<polygon fill="#A94B25" points="1172.2,1231.5 1212,1205.7 2879.3,1968.2 2911.3,1990.1 2339.9,2429 		"/>
	</g>
</g>
<rect x="-107.7" y="-222.5" fill="none" width="3407" height="2740"/>
<path id="XMLID_38_" fill="#2D2D2D" d="M1212,1205.7l1667.4,762.4l31.8,21.9l-571.4,438.9L1172.3,1231.3L1212,1205.7 M1209.9,1186.9
	l-11.6,7.5l-39.7,25.7l-13.9,9l10.7,11L2323,2437.8l14.6,15l17.4-13.3l571.4-438.9l14.2-11l-15.1-10.4l-31.8-21.9l-1.5-1l-1.7-0.7
	L1222.9,1193L1209.9,1186.9L1209.9,1186.9z"/>
<rect x="-107.7" y="-222.5" fill="none" width="3407" height="2740"/>
<g id="XMLID_88_">
	<g>
		<polygon fill="#A94B25" points="1150.6,1148 1130.4,1146.9 964.6,418.8 964.2,402.1 1279.1,393.4 		"/>
	</g>
</g>
<rect x="-107.7" y="-222.5" fill="none" width="3407" height="2740"/>
<path id="XMLID_79_" fill="#2D2D2D" d="M1279.1,393.4L1150.6,1148l-20.1-1.1L964.6,418.8l-0.4-16.6L1279.1,393.4 M1288.5,385.3
	l-9.6,0.3l-315,8.7l-7.9,0.2l0.2,7.9l0.4,16.6v0.8l0.2,0.8l165.9,728.1l1.3,5.8l5.9,0.3l20.1,1.1l7,0.4l1.2-6.9l128.6-754.5
	L1288.5,385.3L1288.5,385.3z"/>
<rect x="-107.7" y="-222.5" fill="none" width="3407" height="2740"/>
<rect id="XMLID_9_" x="643.5" y="133.5" fill="none" width="2113.6" height="1988.5"/>
<rect x="-107.7" y="-222.5" fill="none" width="3407" height="2740"/>
<path id="XMLID_23_" fill="#2D2D2D" d="M1084.4,1311.5c-13.5-23.2-29.5-46.8-46.2-68.1c-20.8-26.5-31.8-58.4-31.8-92.1
	c0-39.9,15.4-77.3,43.4-105.5c28-28.2,65.3-43.8,104.9-43.8c8.7,0,17.4,0.8,25.9,2.3c70.9,12.6,122.4,74.4,122.4,147.1
	c0,33.7-11,65.5-31.8,92.1c-17,21.7-32.5,44.6-46.2,68.1l-1.7,2.9h-137.4L1084.4,1311.5z"/>
<rect x="-107.7" y="-222.5" fill="none" width="3407" height="2740"/>
<path id="XMLID_10_" fill="#F5AB34" d="M1446.8,730.2"/>
<rect x="-107.7" y="-222.5" fill="none" width="3407" height="2740"/>
<path id="XMLID_12_" fill="#F5AB34" d="M1494.3,730.2"/>
<rect x="-107.7" y="-222.5" fill="none" width="3407" height="2740"/>
<line id="XMLID_15_" fill="none" x1="1481.8" y1="730.2" x2="1510.9" y2="791.3"/>
<rect x="-107.7" y="-222.5" fill="none" width="3407" height="2740"/>
<g id="XMLID_20_">
	<g id="XMLID_1_">
		<path id="XMLID_80_" fill="#B2B3B3" d="M1145.1,1360.4c-6.5-1.1-11.2-6.8-11.2-13.4v-1.7c-11.7-2.4-20.1-12.7-20.1-24.8v-3.7h82
			v3.7c0,12.1-8.6,22.4-20.1,24.8v1.7c0,7.5-6.1,13.7-13.5,13.7h-14.8C1146.7,1360.6,1145.9,1360.5,1145.1,1360.4z"/>
		<path id="XMLID_45_" fill="#2D2D2D" d="M1192.2,1320.5c0,11.5-8.9,20.8-20.1,21.6v4.9c0,5.5-4.4,10-9.9,10h-14.8
			c-0.6,0-1.1-0.1-1.7-0.1c-4.6-0.8-8.2-4.9-8.2-9.8v-4.9c-0.8-0.1-1.5-0.1-2.2-0.3c-10.1-1.8-17.8-10.6-17.8-21.3H1192.2
			 M1199.5,1313.2h-7.3h-74.7h-7.3v7.3c0,12.8,8.3,23.8,20.1,27.6c0.5,7.9,6.3,14.5,14.2,15.9c1,0.2,2,0.3,3,0.3h14.8
			c9.1,0,16.6-7.2,17.1-16.2c4.6-1.5,8.9-4.1,12.3-7.8c5-5.4,7.8-12.4,7.8-19.8V1313.2L1199.5,1313.2z"/>
		<g id="XMLID_25_">
			<path id="XMLID_26_" fill="#FBE53F" d="M1098.7,1108.4l2.5-6.5c-4.2,3-8.2,6.4-11.9,10.2c-1.3,1.3-2.5,2.7-3.7,4l2.8,2.3
				L1098.7,1108.4z"/>
			<path id="XMLID_27_" fill="#FBE53F" d="M1178.6,1081.1c-0.4,0-0.8,0-1.3,0c-1.1,0-2.2,0-3.4,0.1l3.4,3.6
				C1177.3,1084.7,1177.1,1083,1178.6,1081.1z"/>
			<path id="XMLID_34_" fill="#FBE53F" d="M1202.7,1101.9c-0.4,0-0.8,0-1.3,0c-1.1,0-2.2,0-3.4,0.1l3.4,3.6
				C1201.4,1105.5,1201.2,1103.8,1202.7,1101.9z"/>
			<path id="XMLID_22_" fill="#FBE53F" d="M1183.2,1063.2c-0.4,0-0.8,0-1.3,0c-1.1,0-2.2,0-3.4,0.1l3.4,3.6
				C1182,1066.8,1181.7,1065.1,1183.2,1063.2z"/>
			<path id="XMLID_21_" fill="#FBE53F" d="M1168.4,1074.4c-0.4,0-0.8,0-1.3,0c-1.1,0-2.2,0-3.4,0.1l3.4,3.6
				C1167.1,1078,1166.9,1076.3,1168.4,1074.4z"/>
			<path id="XMLID_24_" fill="#FBE53F" d="M1157.2,1072.6c-0.4,0-0.8,0-1.3,0c-1.1,0-2.2,0-3.4,0.1l3.4,3.6
				C1155.9,1076.2,1155.6,1074.5,1157.2,1072.6z"/>
			<path id="XMLID_28_" fill="#FBE53F" d="M1050.8,1156.7c-0.4,2.2-0.8,4.4-1,6.7l4-2.5L1050.8,1156.7z"/>
			<path id="XMLID_62_" fill="#FBE53F" d="M1067.9,1144.1c-1.1,2.2-2,4.4-2.7,6.7l10.5-2.5L1067.9,1144.1z"/>
			<path id="XMLID_67_" fill="#FBE53F" d="M1065.3,1125.6c-1.1,2.2-2,4.4-2.7,6.7l10.5-2.5L1065.3,1125.6z"/>
			<path id="XMLID_72_" fill="#FBE53F" d="M1067.9,1106.8c-1.1,2.2-2,4.4-2.7,6.7l10.5-2.5L1067.9,1106.8z"/>
			<path id="XMLID_29_" fill="#FBE53F" d="M1088.9,1247.1c1,1.3,1.9,2.7,2.9,3.9c1,1.2,1.9,2.5,2.9,3.7v-6L1088.9,1247.1z"/>
			<path id="XMLID_3_" fill="#FBE53F" d="M1107.2,1231.8c1,1.3,1.9,2.7,2.9,3.9c1,1.2,1.9,2.5,2.9,3.7v-6L1107.2,1231.8z"/>
			<path id="XMLID_4_" fill="#FBE53F" d="M1070.3,1215.9c1,1.3,1.9,2.7,2.9,3.9c1,1.2,1.9,2.5,2.9,3.7v-6L1070.3,1215.9z"/>
			<path id="XMLID_5_" fill="#FBE53F" d="M1146,1269.9c1,1.3,1.9,2.7,2.9,3.9c1,1.2,1.9,2.5,2.9,3.7v-6L1146,1269.9z"/>
			<path id="XMLID_35_" fill="#FBE53F" d="M1228.4,1228.6l0.7,5.3c1.8-2.5,3.6-5.1,5.2-7.7L1228.4,1228.6z"/>
			<path id="XMLID_16_" fill="#FBE53F" d="M1231.4,1211.5l0.7,5.3c1.8-2.5,3.6-5.1,5.2-7.7L1231.4,1211.5z"/>
			<path id="XMLID_17_" fill="#FBE53F" d="M1253.4,1206.8l0.7,5.3c1.8-2.5,3.6-5.1,5.2-7.7L1253.4,1206.8z"/>
			<path id="XMLID_18_" fill="#FBE53F" d="M1250.4,1189.5l0.7,5.3c1.8-2.5,3.6-5.1,5.2-7.7L1250.4,1189.5z"/>
			<path id="XMLID_19_" fill="#FBE53F" d="M1265.6,1180.2l0.7,5.3c1.8-2.5,3.6-5.1,5.2-7.7L1265.6,1180.2z"/>
			<path id="XMLID_6_" fill="#FBE53F" d="M1213.8,1234.1l0.7,5.3c1.8-2.5,3.6-5.1,5.2-7.7L1213.8,1234.1z"/>
			<path id="XMLID_7_" fill="#FBE53F" d="M1218.6,1249.6l0.7,5.3c1.8-2.5,3.6-5.1,5.2-7.7L1218.6,1249.6z"/>
			<path id="XMLID_39_" fill="#FBE53F" d="M1133.2,1311.5h-18.7h-4.3c0.4,0.6,0.7,1.2,1.1,1.8l1.1,1.8h85.9l1.1-1.8
				c1-1.8,2.1-3.5,3.1-5.3l-6.3,3.4L1133.2,1311.5L1133.2,1311.5z"/>
			<path id="XMLID_42_" fill="#FBE53F" d="M1188.4,1044.3l9,25.4l0,0l2.5,7.2h19.9l6,15.7l11.8,4.3l4.4,21.1l13.1-13.1l7.4,23.9
				l8.6-12.5l5.5,5.1l3.7-0.1c-5.5-39.8-35.7-72-75.8-79.1c-4.9-0.9-9.9-1.3-14.9-1.4C1188.1,1042.6,1188.4,1044.3,1188.4,1044.3z"
				/>
			<path id="XMLID_44_" fill="#FBE53F" d="M1281.7,1152.4l-3.7,0.1l-5.5-5.1l-8.5,12.6l5.1,13.1l-13.1,4l2.9,15.4h-10.2l14.8,23.3
				l5.9-2.4c8.7-14.5,13.3-30.9,13.3-48.1C1282.6,1160.9,1282.4,1156.7,1281.7,1152.4z"/>
			<path id="XMLID_48_" fill="#FBE53F" d="M1238.2,1224.4l-3.4,13.8h-9.6l-3.7,20.5l-10.1-15.7l-5.1,16.4l10.6,30.7l6.3-3.4
				c7.8-12.8,16.4-25.4,25.8-37.3c0.4-0.6,0.9-1.2,1.3-1.8l-0.7-5.3L1238.2,1224.4z"/>
			<polygon id="XMLID_49_" fill="#FBE53F" points="1154.4,1289.9 1146.6,1276.4 1132.3,1309.4 1195.3,1309.4 1184.7,1278.6 
				1170.4,1271.2 			"/>
			<path id="XMLID_56_" fill="#FBE53F" d="M1106.5,1280l3.7-11.9l-6-7.1l8-8.8l-19-10.7l8.7-13.2l-5.1-14L1084,1227l-14.5-10.1
				l-10.9,20.2v6c9,11.7,17.5,24.4,25,37h4.3H1106.5z"/>
			<polygon id="XMLID_61_" fill="#FBE53F" points="1132.7,1276.4 1148.8,1257.8 1132.7,1248 1116.3,1248 1106,1244 1097.3,1257.2 
				1116.3,1268 1108.3,1276.8 1114.2,1283.9 1110.6,1295.9 1124.8,1262.9 			"/>
			<path id="XMLID_66_" fill="#FBE53F" d="M1056.9,1199.5l14.5,10.1l12.8-12.8l-11.4-9.3v-10.2l-15.9-2.3v-10.4l-14.6,5.7l6.1-14.8
				l-20.4-4.6l-4,2.5c-0.4,3.6-0.6,7.3-0.6,11c0,19.4,5.8,37.9,17,53.7l5.8,1.7L1056.9,1199.5z"/>
			<path id="XMLID_71_" fill="#FBE53F" d="M1045.5,1129.3l-6.1,14.8l14.6-5.7l5-7.6c0,0,5.7-3.4,5.7-4.6l-12.1-10.5l9.9-6.1
				l-15.7-11.7l11.2-3.4l-11.2-15.8l-2.8-2.3c-11.2,12.6-18.6,27.9-21.8,44.3l3,4.2L1045.5,1129.3z"/>
			<path id="XMLID_74_" fill="#FBE53F" d="M1118.8,1055.8l11,15.2l2-21.3l13.3,14.8l2.6,0.3l3-11.6l-11.2-5l9.1-19.7l5.7,10.2
				l21.8,8l-9-25.4l-3.4-3.6c-18.3,0.6-35.6,6.6-50.3,17.1l-2.5,6.5L1118.8,1055.8z"/>
			<path id="XMLID_76_" fill="#FBE53F" d="M1107,1100.6l15.4,2.3l5.1-24.3l-8.2-0.9l-0.5,2l-2.1-2.3l0,0l-13.3-14.7l-2,21.3
				l-11.1-15.2l-7.6-14.4l-10.4,10l11.2,15.8l-11.2,3.4l15.7,11.7l-9.9,6.1c0,0,12.1,9.5,12.1,10.6l13.1,3L1107,1100.6z"/>
			<polygon id="XMLID_81_" fill="#FBE53F" points="1102.5,1065.3 1099.9,1065 1102,1067.3 			"/>
			<polygon id="XMLID_47_" fill="#FBE53F" points="1132.3,1075.3 1129.7,1075.1 1131.8,1077.3 			"/>
			<polygon id="XMLID_43_" fill="#FBE53F" points="1103.8,1055.7 1101.1,1055.4 1103.2,1057.7 			"/>
			<polygon id="XMLID_41_" fill="#FBE53F" points="1133.6,1077.2 1131,1076.9 1133.1,1079.2 			"/>
			<polygon id="XMLID_40_" fill="#FBE53F" points="1086.8,1062.3 1084.1,1062 1086.2,1064.3 			"/>
			<polygon id="XMLID_54_" fill="#FBE53F" points="1070.5,1092.1 1067.9,1091.9 1070,1094.2 			"/>
		</g>
	</g>
</g>
<rect x="-107.7" y="-222.5" fill="none" width="3407" height="2740"/>
<g id="XMLID_75_">
	
		<image overflow="visible" enable-background="new    " width="1313" height="1329" id="XMLID_512_" xlink:href="AC557FD9.png"  transform="matrix(0.1518 0 0 0.1521 1066.4784 1073.3123)">
	</image>
	<g id="XMLID_392_">
		<g id="XMLID_468_">
			<g id="XMLID_488_">
				<path id="XMLID_489_" fill="#FBE53F" stroke="#FBE53F" stroke-width="5" stroke-miterlimit="10" d="M1188.7,1171.6
					c0,0-0.1-0.2-0.1-0.5c0-0.4-0.1-0.9-0.1-1.6c-0.1-1.4-0.1-3.4-0.3-6c-0.3-5.2-0.8-12.8-2.2-21.8c-0.8-4.6-1.7-9.5-3.1-14.7
					c-0.3-1.3-0.8-2.6-1.1-3.9c-0.2-0.6-0.4-1.3-0.6-2c-0.2-0.7-0.4-1.3-0.7-2c-1-2.7-2-5.5-3.3-8.1c-1.3-2.7-2.8-5.4-4.6-7.9
					s-4.1-4.8-6.8-6.4c-1.4-0.8-2.9-1.2-4.4-1.3c-1.5-0.1-3.1,0.1-4.6,0.8c-1.5,0.6-2.8,1.5-4.1,2.6c-0.6,0.6-1.2,1.1-1.8,1.7
					c-0.3,0.3-0.6,0.6-0.8,1l-0.8,1c-0.5,0.6-1,1.4-1.5,2c-0.4,0.7-0.9,1.4-1.3,2.2c-0.8,1.5-1.7,3-2.3,4.6
					c-1.5,3.1-2.7,6.4-3.7,9.7c-1.1,3.3-2,6.7-2.7,10.2s-1.4,6.9-2,10.4c-1.1,6.9-1.7,13.9-2,20.8c-0.3,6.9-0.3,13.7,0.1,20.3
					c0.3,6.6,1,13.1,2,19.2c1,6.2,2.2,12,3.7,17.4c0.8,2.7,1.7,5.3,2.5,7.7s2,4.8,3,7c1.1,2.2,2.3,4.2,3.6,6
					c1.3,1.8,2.6,3.4,4.1,4.7s3,2.3,4.8,2.9c1.7,0.6,3.5,0.6,5.2,0.3c1.7-0.4,3.2-1.2,4.6-2.2c1.4-1,2.6-2.3,3.7-3.6
					c2.2-2.7,3.9-5.6,5.3-8.4c1.5-2.9,2.6-5.8,3.6-8.6c0.5-1.4,1-2.8,1.4-4.2c0.4-1.4,0.8-2.7,1.1-4.1c0.7-2.7,1.3-5.2,1.8-7.7
					c1-4.9,1.7-9.3,2.2-13.3c1-7.9,1.3-13.8,1.6-17.8c0.1-2,0.2-3.4,0.3-4.4C1188.6,1172.2,1188.7,1171.6,1188.7,1171.6
					s0.1,0.5,0.2,1.5c0.1,1,0.1,2.5,0.1,4.4c0,3.9-0.1,10-1,17.9c-0.4,4-1,8.5-2,13.5c-0.5,2.5-1,5.1-1.7,7.7
					c-0.3,1.3-0.8,2.7-1.1,4.1c-0.4,1.4-0.8,2.9-1.3,4.3c-1,2.9-2.2,5.8-3.6,8.9c-1.5,3-3.2,6-5.5,8.9c-1.2,1.4-2.5,2.8-4,3.9
					c-1.5,1.1-3.4,2.2-5.4,2.6c-2,0.4-4.2,0.4-6.2-0.3c-2-0.7-3.9-1.8-5.5-3.2c-1.6-1.4-3-3.1-4.4-5c-1.3-1.9-2.6-4-3.7-6.2
					c-1.1-2.2-2.2-4.6-3.1-7.2c-1-2.5-1.8-5.1-2.6-7.9c-1.6-5.5-2.8-11.4-3.7-17.6c-1-6.2-1.6-12.7-1.9-19.4
					c-0.3-6.7-0.4-13.5,0-20.5c0.3-7,1-14,2.1-21c0.6-3.5,1.2-7,2-10.5c0.8-3.4,1.7-6.9,2.8-10.2c1.1-3.4,2.3-6.7,3.9-9.8
					c0.8-1.6,1.6-3.2,2.5-4.6c0.4-0.8,1-1.5,1.4-2.2c0.5-0.7,1-1.5,1.5-2.1l0.8-1c0.3-0.3,0.6-0.6,0.9-1c0.6-0.6,1.3-1.2,1.9-1.8
					c1.3-1.1,2.8-2.1,4.4-2.8c1.7-0.7,3.4-1,5.2-0.8c1.7,0.1,3.4,0.7,4.9,1.5c0.4,0.2,0.7,0.4,1.1,0.6c0.2,0.1,0.4,0.3,0.5,0.3
					l0.5,0.4c0.3,0.3,0.6,0.5,1,0.8l0.9,0.8c0.3,0.3,0.6,0.6,0.8,0.9c0.3,0.3,0.6,0.6,0.8,0.9l0.8,1c0.3,0.3,0.5,0.6,0.7,1
					c1.8,2.6,3.4,5.3,4.6,8.1c1.3,2.7,2.3,5.5,3.3,8.3c0.3,0.7,0.4,1.3,0.6,2c0.2,0.7,0.4,1.3,0.6,2c0.4,1.3,0.8,2.7,1.1,4
					c1.3,5.3,2.3,10.2,2.9,14.9c1.3,9.2,1.7,16.8,1.9,22c0.1,2.6,0.1,4.6,0.1,6c0,0.7,0,1.2-0.1,1.6
					C1188.7,1171.5,1188.7,1171.6,1188.7,1171.6z"/>
			</g>
			<g id="XMLID_486_">
				<path id="XMLID_487_" fill="#FBE53F" stroke="#FBE53F" stroke-width="5" stroke-miterlimit="10" d="M1181.2,1151
					c0,0-0.1-0.1-0.4-0.3c-0.3-0.3-0.6-0.6-1.1-1.1c-1-1-2.4-2.3-4.3-4.1c-3.8-3.5-9.3-8.4-16.7-13.8c-3.7-2.7-7.8-5.5-12.4-8.2
					c-1.1-0.7-2.3-1.3-3.5-2c-1.2-0.6-2.4-1.3-3.7-1.9c-2.5-1.3-5.2-2.4-7.9-3.4c-2.8-1-5.7-1.8-8.7-2.3c-0.8-0.1-1.5-0.2-2.3-0.3
					c-0.4,0-0.8,0-1.1-0.1c-0.4,0-0.8,0-1.1,0c-0.4,0-0.8,0-1.1,0.1c-0.4,0.1-0.8,0.1-1.1,0.1c-0.2,0-0.4,0.1-0.6,0.1l-0.6,0.1
					c-0.4,0.1-0.8,0.1-1.1,0.3c-2.9,0.8-5.5,2.9-6.7,5.8c-0.6,1.5-1,3-1.1,4.6l-0.1,1.2c0,0.2,0,0.4,0,0.6v0.6c0,0.4,0,0.8,0.1,1.2
					l0.1,1.2c0.3,3.3,1.2,6.5,2.3,9.8c1.1,3.2,2.5,6.4,4,9.5c1.5,3.1,3.2,6.1,5,9c1.8,2.9,3.7,5.8,5.7,8.6c4,5.7,8.4,11,12.9,16.1
					c4.5,5.1,9.3,9.8,14.1,14.2c9.7,8.8,19.6,16.3,29.3,21.7c1.2,0.7,2.4,1.3,3.6,2c1.2,0.6,2.3,1.2,3.6,1.7c2.3,1.1,4.7,2,7,2.7
					c2.3,0.8,4.5,1.3,6.7,1.7c2.2,0.4,4.2,0.5,6.1,0.4c1.9-0.1,3.7-0.6,5.3-1.3c1.6-0.8,2.9-2,3.9-3.4c1-1.5,1.5-3.1,1.8-4.8
					c0.3-1.7,0.3-3.4,0.2-5.1c-0.3-3.4-1-6.6-2-9.7c-1-3-2.2-5.9-3.4-8.6c-0.6-1.3-1.3-2.7-1.9-3.9c-0.7-1.3-1.3-2.5-2-3.7
					c-0.3-0.6-0.6-1.1-1-1.8c-0.3-0.6-0.7-1.1-1-1.7c-0.6-1.1-1.3-2.2-2-3.2c-2.7-4.1-5.2-7.7-7.6-10.9c-4.7-6.3-8.6-10.7-11.1-13.7
					c-1.3-1.5-2.2-2.5-2.9-3.3C1181.4,1151.4,1181.1,1151.1,1181.2,1151c0.1-0.1,0.4,0.3,1.1,0.9s1.8,1.7,3.2,3
					c2.7,2.8,6.8,7.1,11.7,13.3c2.5,3.1,5.1,6.7,7.8,10.9c0.7,1.1,1.4,2.1,2,3.2c0.3,0.6,0.7,1.1,1,1.7s0.7,1.1,1,1.8
					c0.7,1.2,1.3,2.4,2,3.7c0.6,1.3,1.3,2.6,2,3.9c1.3,2.7,2.5,5.7,3.5,8.8c1,3.1,1.8,6.5,2.1,10.1c0.1,1.8,0.1,3.7-0.2,5.5
					c-0.3,1.9-1,3.8-2,5.5c-1.1,1.7-2.7,3.2-4.6,4.1c-1.9,1-4,1.4-6,1.5c-2.1,0.1-4.3-0.1-6.5-0.4c-2.3-0.4-4.6-1-6.9-1.8
					c-2.3-0.8-4.8-1.7-7.2-2.9c-1.2-0.5-2.4-1.1-3.6-1.8s-2.5-1.3-3.7-2c-9.8-5.5-19.9-13.1-29.6-22c-4.8-4.5-9.6-9.3-14.2-14.4
					s-9-10.5-13-16.3c-2-2.9-3.9-5.8-5.7-8.8c-1.8-3-3.5-6-5-9.2c-1.5-3.1-2.9-6.4-4-9.7c-1.1-3.3-2-6.7-2.3-10.1l-0.1-1.3
					c0-0.4,0-0.9-0.1-1.3v-0.6c0-0.2,0-0.4,0-0.6l0.1-1.3c0.2-1.7,0.6-3.4,1.3-5c0.7-1.6,1.8-3,3.1-4.1c1.3-1.1,2.9-1.9,4.5-2.3
					c0.4-0.1,0.8-0.2,1.2-0.3l0.6-0.1c0.2-0.1,0.4-0.1,0.6-0.1c0.4-0.1,0.8-0.1,1.2-0.1c0.4,0,0.8,0,1.2-0.1c0.4,0,0.8,0,1.2,0
					s0.8,0.1,1.2,0.1c0.8,0.1,1.6,0.2,2.3,0.3c3.1,0.5,6.1,1.4,8.9,2.4c2.8,1,5.5,2.2,8.1,3.5c1.3,0.6,2.5,1.3,3.7,2
					c1.2,0.7,2.4,1.3,3.6,2c4.6,2.7,8.7,5.6,12.3,8.4c7.3,5.5,12.8,10.5,16.5,14.2c1.8,1.8,3.2,3.2,4.2,4.2c0.4,0.5,0.8,0.9,1.1,1.1
					C1181.1,1150.9,1181.2,1151,1181.2,1151z"/>
			</g>
			<g id="XMLID_484_">
				<path id="XMLID_485_" fill="#FBE53F" stroke="#FBE53F" stroke-width="5" stroke-miterlimit="10" d="M1179.8,1189.5
					c0,0-0.1,0.1-0.3,0.4c-0.3,0.3-0.6,0.6-1.1,1.1c-1,1-2.4,2.3-4.3,4.1c-3.7,3.5-9.4,8.4-16.8,13.7c-3.7,2.6-7.9,5.3-12.6,7.9
					c-2.3,1.3-4.8,2.5-7.4,3.7c-2.6,1.1-5.3,2.2-8.2,3.1c-2.9,0.9-5.8,1.6-9,1.9c-1.6,0.1-3.2,0.2-4.8,0.1c-0.8-0.1-1.6-0.2-2.4-0.3
					c-0.4-0.1-0.8-0.2-1.2-0.3l-0.6-0.1c-0.2-0.1-0.4-0.1-0.6-0.2c-1.6-0.5-3-1.4-4.4-2.5c-1.3-1.1-2.3-2.5-3-4.1
					c-0.2-0.4-0.3-0.8-0.5-1.2c-0.1-0.4-0.3-0.8-0.4-1.2c-0.1-0.4-0.2-0.8-0.3-1.3l-0.2-1.3c-0.2-1.7-0.3-3.4-0.1-5.1
					c0.3-3.4,1-6.8,2.1-10.1c1.1-3.3,2.4-6.5,3.9-9.7c1.5-3.1,3.2-6.2,5-9.1c1.8-3,3.7-5.9,5.8-8.7c4.1-5.7,8.4-11,13.1-16.1
					c4.6-5.1,9.5-9.8,14.4-14.1c9.8-8.7,20.1-15.9,30.1-21.1c2.5-1.3,5-2.4,7.4-3.4c2.5-1,4.9-1.8,7.2-2.5c4.8-1.3,9.4-1.9,13.5-1.4
					c2.1,0.3,4.1,0.9,5.9,1.9c1.8,1,3.4,2.5,4.4,4.1c1.1,1.7,1.8,3.6,2.2,5.5c0.3,1.8,0.4,3.7,0.4,5.5c-0.2,3.6-1,7-1.9,10.1
					c-1,3.1-2.2,6-3.4,8.8c-2.5,5.5-5.3,10.2-8.1,14.3c-2.7,4.1-5.4,7.7-7.9,10.8c-5,6.2-9,10.4-11.8,13.1c-1.4,1.4-2.5,2.3-3.2,3
					C1180.3,1189.3,1179.9,1189.6,1179.8,1189.5s0.3-0.4,0.9-1.1c0.6-0.7,1.7-1.8,2.9-3.2c2.6-2.9,6.5-7.2,11.3-13.5
					c2.3-3.1,5-6.7,7.6-10.8c2.6-4.1,5.4-8.8,7.8-14.2c1.2-2.7,2.3-5.5,3.2-8.6s1.7-6.3,1.8-9.7c0.1-1.7,0-3.4-0.3-5.1
					c-0.3-1.7-1-3.3-1.9-4.8c-1-1.5-2.2-2.7-3.8-3.6s-3.4-1.4-5.3-1.7c-3.8-0.5-8.2,0.1-12.8,1.3c-2.3,0.6-4.6,1.5-7,2.4
					c-2.4,1-4.8,2.1-7.3,3.4c-9.8,5-20,12.1-29.8,20.7c-4.9,4.3-9.7,9-14.3,13.9c-4.6,5-9,10.3-13,15.9c-2,2.8-3.9,5.7-5.8,8.6
					c-1.8,2.9-3.5,6-5,9c-1.5,3-2.9,6.2-3.9,9.4c-1.1,3.2-1.8,6.5-2.1,9.8c-0.3,3.2,0,6.6,1.3,9.5c0.6,1.5,1.6,2.7,2.7,3.7
					c1.1,1,2.5,1.8,3.9,2.3c0.2,0.1,0.4,0.1,0.5,0.2l0.6,0.1c0.4,0.1,0.8,0.2,1.1,0.3c0.8,0.1,1.5,0.3,2.3,0.3c1.5,0.1,3,0.1,4.6,0
					c3-0.3,6-1,8.8-1.8c2.8-0.8,5.5-1.9,8.1-3c2.6-1.1,5-2.3,7.4-3.6c4.6-2.5,8.8-5.1,12.6-7.7c7.4-5.1,13.1-10,17-13.3
					c1.9-1.7,3.4-3,4.4-4c0.5-0.4,0.9-0.8,1.1-1S1179.8,1189.5,1179.8,1189.5z"/>
			</g>
			<g id="XMLID_482_">
				<path id="XMLID_483_" fill="#FBE53F" stroke="#FBE53F" stroke-width="5" stroke-miterlimit="10" d="M1239.1,1172.4
					c0,0-0.1-0.2-0.1-0.5c-0.1-0.3-0.1-0.9-0.3-1.5c-0.3-1.3-1-3.2-2.6-5.2c-1.6-2-3.9-4.1-7-6c-3-1.9-6.7-3.7-11-5.3
					c-17-6.4-42-9.7-68.8-7.7c-3.4,0.3-6.7,0.6-10.1,1s-6.7,1-10.1,1.6c-6.7,1.3-13.5,3-19.9,5.4c-3.2,1.2-6.4,2.6-9.3,4.3
					c-1.5,0.8-2.9,1.8-4.2,2.7l-1,0.8l-0.5,0.4l-0.4,0.4l-0.9,0.8l-0.8,0.9c-1.1,1.2-2,2.5-2.6,4c-0.6,1.5-0.9,3-0.8,4.5
					c0.1,1.5,0.6,3,1.3,4.4c0.8,1.3,1.7,2.6,2.9,3.7c2.2,2.2,4.9,4,7.6,5.5s5.5,2.7,8.4,3.8c2.9,1.1,5.7,2,8.4,2.8
					c1.4,0.4,2.8,0.8,4.2,1.1c1.4,0.3,2.7,0.6,4.1,0.9c10.8,2.3,20.6,3.1,28.6,3.5c15.9,0.7,29.8-0.4,41.4-2.3
					c5.8-1,11.1-2.2,15.7-3.6c4.7-1.4,8.8-2.9,12.3-4.6c3.5-1.7,6.4-3.4,8.6-5.2c2.2-1.8,3.8-3.6,4.8-5.2c1-1.7,1.3-3,1.6-3.9
					C1238.9,1172.8,1239,1172.4,1239.1,1172.4s0.1,0.5,0.1,1.5c-0.1,1-0.4,2.5-1.3,4.3c-1,1.8-2.5,3.7-4.8,5.7
					c-2.3,2-5.2,3.9-8.8,5.7c-3.6,1.8-7.7,3.4-12.4,4.9c-4.8,1.5-10,2.7-15.9,3.8c-11.7,2-25.8,3.2-41.8,2.5
					c-8-0.4-17.9-1.2-28.8-3.6c-1.4-0.3-2.7-0.6-4.1-1c-1.4-0.4-2.8-0.7-4.3-1.1c-2.9-0.8-5.7-1.7-8.6-2.9c-2.9-1.1-5.8-2.4-8.6-4
					c-2.8-1.6-5.6-3.4-8-5.8c-1.2-1.2-2.3-2.6-3.1-4.1c-0.8-1.5-1.4-3.3-1.5-5.1c-0.1-1.8,0.3-3.6,1-5.3c0.7-1.7,1.8-3.1,2.9-4.4
					l0.9-1l1-0.9c0.2-0.1,0.3-0.3,0.5-0.4l0.5-0.4l1-0.8c1.4-1,2.9-2,4.4-2.9c3-1.7,6.2-3.1,9.5-4.4c6.5-2.4,13.3-4.1,20.1-5.4
					c3.4-0.6,6.8-1.1,10.2-1.5c3.4-0.4,6.8-0.7,10.2-1c26.9-1.7,52.1,1.8,69.1,8.4c4.3,1.7,7.9,3.5,11,5.5c3,2,5.4,4.2,7,6.2
					c1.6,2.1,2.2,4.1,2.5,5.4c0.1,0.7,0.1,1.2,0.1,1.5C1239.1,1172.2,1239.1,1172.4,1239.1,1172.4z"/>
			</g>
			<path id="XMLID_480_" fill="#FBE53F" stroke="#FBE53F" stroke-width="5" stroke-miterlimit="10" d="M1160.7,1155.2
				c-8.5,0-15.4,6.9-15.4,15.4s6.9,15.4,15.4,15.4s15.4-6.9,15.4-15.4C1176.1,1162.1,1169.2,1155.2,1160.7,1155.2z"/>
			<path id="XMLID_477_" fill="#FBE53F" stroke="#FBE53F" stroke-width="5" stroke-miterlimit="10" d="M1107.8,1112.6
				c-3.2,0-5.9,2.7-5.9,5.9c0,3.2,2.7,5.9,5.9,5.9c3.2,0,5.9-2.7,5.9-5.9C1113.7,1115.2,1111.1,1112.6,1107.8,1112.6z
				 M1106.2,1118.4c-1.1,0-2-0.9-2-2c0-1.1,0.9-2,2-2c1.1,0,2,0.9,2,2S1107.3,1118.4,1106.2,1118.4z"/>
			<path id="XMLID_474_" fill="#FBE53F" stroke="#FBE53F" stroke-width="5" stroke-miterlimit="10" d="M1212.6,1110.5
				c-3.2,0-5.9,2.7-5.9,5.9s2.7,5.9,5.9,5.9c3.2,0,5.9-2.7,5.9-5.9S1215.8,1110.5,1212.6,1110.5z M1211.3,1116.4c-1.1,0-2-0.9-2-2
				c0-1.1,0.9-2,2-2c1.1,0,2,0.9,2,2C1213.3,1115.5,1212.4,1116.4,1211.3,1116.4z"/>
			<path id="XMLID_471_" fill="#FBE53F" stroke="#FBE53F" stroke-width="5" stroke-miterlimit="10" d="M1239,1166.4
				c-3.4,0-6,2.7-6,6c0,3.4,2.7,6,6,6c3.4,0,6-2.7,6-6C1245,1169,1242.4,1166.4,1239,1166.4z M1237.9,1172.4c-1.1,0-2-0.9-2-2
				c0-1.1,0.9-2,2-2c1.1,0,2,0.9,2,2C1239.9,1171.5,1239,1172.4,1237.9,1172.4z"/>
			<path id="XMLID_469_" fill="#FBE53F" stroke="#FBE53F" stroke-width="5" stroke-miterlimit="10" d="M1160.6,1242.6
				c-3.4,0-6,2.7-6,6c0,3.4,2.7,6,6,6c3.4,0,6-2.7,6-6C1166.7,1245.3,1163.9,1242.6,1160.6,1242.6z"/>
		</g>
	</g>
</g>
</svg>
